# xmcd CD database file
#
# Track frame offsets:
#	150
#	16002
#	28495
#	43490
#	56305
#	82821
#
# Disc length: 1734 seconds
#
# Revision: 0
# Processed by: cddbd v1.5.1PL0 Copyright (c) Steve Scherf et al.
# Submitted via: CDex 1.51
#
DISCID=4206c406
DTITLE=ANA JOHNSSON - THE WAY I AM [BONUS]
DYEAR=2005
DGENRE=Rock
TTITLE0=TAME ME
TTITLE1=BRING IT ON
TTITLE2=WHAT IS A GIRL TO DO
TTITLE3=ANYTHING GOES
TTITLE4=JUST A GIRL
TTITLE5=CD EXTRA
EXTD=YEAR: 2005
EXTT0=
EXTT1=
EXTT2=
EXTT3=
EXTT4=
EXTT5=
PLAYORDER=
